<svg width="34" height="34" viewBox="0 0 34 34" fill="none" xmlns="http://www.w3.org/2000/svg">
<path d="M17.2318 16.6948H10.245V11.0238C10.2459 10.2697 10.5416 9.54675 11.0674 9.01353C11.5932 8.48031 12.306 8.18037 13.0495 8.17951C14.119 8.17951 15.1447 7.74863 15.9009 6.98165C16.6572 6.21467 17.082 5.17442 17.082 4.08975C17.082 3.00508 16.6572 1.96484 15.9009 1.19786C15.1447 0.430884 14.119 3.23257e-08 13.0495 0C10.1677 0.00330833 7.40493 1.1658 5.3672 3.23245C3.32948 5.2991 2.18326 8.10112 2.18 11.0238V17.1522C1.52314 17.4967 0.97234 18.0178 0.587853 18.6584C0.203366 19.299 0 20.0345 0 20.7845C0 21.5345 0.203366 22.27 0.587853 22.9106C0.97234 23.5513 1.52314 24.0723 2.18 24.4168V29.9102C2.18 30.9949 2.60486 32.0352 3.3611 32.8021C4.11734 33.5691 5.14302 34 6.21251 34C7.282 34 8.30769 33.5691 9.06394 32.8021C9.82018 32.0352 10.245 30.9949 10.245 29.9102V24.8748H17.2318C18.3013 24.8748 19.327 24.4439 20.0832 23.6769C20.8394 22.9099 21.2643 21.8697 21.2643 20.785C21.2643 19.7003 20.8394 18.6601 20.0832 17.8931C19.327 17.1261 18.3013 16.6953 17.2318 16.6953V16.6948Z" fill="#FF0000"/>
<path d="M27.5419 20.4091C23.9754 20.4091 21.0837 18.3475 21.0837 15.8045C21.0837 13.2614 23.975 11.1999 27.5419 11.1999C31.1088 11.1999 34.0001 13.2614 34.0001 15.8045C34.0001 18.3475 31.1088 20.4091 27.5419 20.4091ZM28.5181 5.29178C28.1224 5.69256 27.8325 6.18798 27.6752 6.73233C27.518 7.27667 27.4985 7.85242 27.6184 8.40644C28.1647 8.52783 28.7322 8.50793 29.2689 8.34857C29.8056 8.1892 30.2941 7.89548 30.6895 7.49445C31.0849 7.09343 31.3745 6.59797 31.5316 6.05369C31.6887 5.50941 31.7083 4.93379 31.5886 4.37981C31.0425 4.25824 30.475 4.27806 29.9385 4.43744C29.402 4.59682 28.9136 4.89063 28.5185 5.29178H28.5181ZM26.5657 7.11948C26.1705 6.71813 25.682 6.42416 25.1452 6.26469C24.6085 6.10522 24.0409 6.08538 23.4946 6.20701C23.3749 6.76099 23.3946 7.33659 23.5517 7.88086C23.7089 8.42512 23.9985 8.92055 24.3939 9.32156C24.7893 9.72258 25.2778 10.0163 25.8144 10.1757C26.3511 10.3351 26.9186 10.355 27.4649 10.2336C27.5849 9.67976 27.5654 9.10416 27.4083 8.55991C27.2513 8.01567 26.9616 7.52029 26.566 7.11948H26.5657Z" fill="#008000"/>
</svg>
